<mxfile host="app.diagrams.net" modified="2024-03-27T15:24:46.428Z" agent="Mozilla/5.0 (Windows NT 10.0; Win64; x64) AppleWebKit/537.36 (KHTML, like Gecko) Chrome/123.0.0.0 Safari/537.36" etag="CFJZv-7iP8pKPwMmQkyA" version="24.2.0" type="device">
  <diagram name="Page-1" id="Wl4qqZWPlfM1WC1LZrM2">
    <mxGraphModel dx="757" dy="540" grid="1" gridSize="10" guides="1" tooltips="1" connect="1" arrows="1" fold="1" page="1" pageScale="1" pageWidth="850" pageHeight="1100" math="0" shadow="0">
      <root>
        <mxCell id="0" />
        <mxCell id="1" parent="0" />
        <mxCell id="0cN9bVkUMFvqnsQbVNbZ-1" value="Farmer" style="shape=umlActor;verticalLabelPosition=bottom;verticalAlign=top;html=1;outlineConnect=0;" vertex="1" parent="1">
          <mxGeometry x="150" y="330" width="30" height="60" as="geometry" />
        </mxCell>
        <mxCell id="0cN9bVkUMFvqnsQbVNbZ-2" value="Dealer" style="shape=umlActor;verticalLabelPosition=bottom;verticalAlign=top;html=1;outlineConnect=0;" vertex="1" parent="1">
          <mxGeometry x="150" y="200" width="30" height="60" as="geometry" />
        </mxCell>
        <mxCell id="0cN9bVkUMFvqnsQbVNbZ-3" value="Customer" style="shape=umlActor;verticalLabelPosition=bottom;verticalAlign=top;html=1;outlineConnect=0;" vertex="1" parent="1">
          <mxGeometry x="510" y="270" width="30" height="60" as="geometry" />
        </mxCell>
        <mxCell id="0cN9bVkUMFvqnsQbVNbZ-7" style="edgeStyle=orthogonalEdgeStyle;rounded=0;orthogonalLoop=1;jettySize=auto;html=1;" edge="1" parent="1" source="0cN9bVkUMFvqnsQbVNbZ-4" target="0cN9bVkUMFvqnsQbVNbZ-6">
          <mxGeometry relative="1" as="geometry">
            <Array as="points">
              <mxPoint x="480" y="100" />
              <mxPoint x="480" y="100" />
            </Array>
          </mxGeometry>
        </mxCell>
        <mxCell id="0cN9bVkUMFvqnsQbVNbZ-4" value="Unregistered&lt;div&gt;User&lt;/div&gt;" style="shape=umlActor;verticalLabelPosition=bottom;verticalAlign=top;html=1;outlineConnect=0;" vertex="1" parent="1">
          <mxGeometry x="510" y="60" width="30" height="60" as="geometry" />
        </mxCell>
        <mxCell id="0cN9bVkUMFvqnsQbVNbZ-5" value="Login" style="ellipse;whiteSpace=wrap;html=1;" vertex="1" parent="1">
          <mxGeometry x="305" y="220" width="95" height="40" as="geometry" />
        </mxCell>
        <mxCell id="0cN9bVkUMFvqnsQbVNbZ-6" value="Register" style="ellipse;whiteSpace=wrap;html=1;" vertex="1" parent="1">
          <mxGeometry x="305" y="80" width="95" height="40" as="geometry" />
        </mxCell>
      </root>
    </mxGraphModel>
  </diagram>
</mxfile>
